<?xml version="1.0" encoding="utf-8"?>
<!-- Generator: Adobe Illustrator 16.0.4, SVG Export Plug-In . SVG Version: 6.00 Build 0)  -->
<!DOCTYPE svg PUBLIC "-//W3C//DTD SVG 1.1//EN" "http://www.w3.org/Graphics/SVG/1.1/DTD/svg11.dtd">
<svg version="1.1" id="Layer_1" xmlns="http://www.w3.org/2000/svg" xmlns:xlink="http://www.w3.org/1999/xlink" x="0px" y="0px"
	 width="264.793px" height="49.138px" viewBox="0 0 264.793 49.138" enable-background="new 0 0 264.793 49.138"
	 xml:space="preserve">
<path d="M13.735,30.469v1.728c0,4.561,1.382,5.39,6.219,5.39h32.268v7.808H19.954c-11.885,0-16.514-4.284-16.514-14.234v-8.637
	c0-10.917,3.8-14.579,16.998-14.579h18.104c10.709,0,13.681,4.284,13.681,10.227v12.299H13.735z M41.926,18.999
	c0-2.487-1.105-3.109-4.214-3.109H20.576c-5.183,0-6.841,0.553-6.841,5.942v2.004h28.191V18.999z"/>
<path d="M154.818,35.444c0,7.393-2.142,9.949-12.645,9.949h-32.199V37.31h30.887c2.764,0,3.731-0.76,3.731-3.317v-1.243
	c0-2.764-0.967-3.109-3.455-3.109h-21.006c-8.499,0-10.088-3.316-10.088-9.881v-2.833c0-6.495,2.418-8.982,10.434-8.982h32.974
	v7.808h-30.487c-2.004,0-2.833,0.622-2.833,2.557v1.728c0,2.073,0.829,2.694,2.626,2.694h20.314c9.605,0,11.747,2.903,11.747,10.779
	V35.444z"/>
<path d="M176.543,45.394c-13.889,0-17.965-4.284-17.965-16.168v-5.045c0-11.954,4.077-16.237,17.965-16.237h27.086v8.845h-26.74
	c-6.495,0-8.015,1.589-8.015,7.738v4.423c0,5.942,1.589,7.738,8.015,7.738h26.81v8.706H176.543z"/>
<path d="M225.977,45.394c-13.89,0-17.966-4.284-17.966-16.168v-5.045c0-11.954,4.076-16.237,17.966-16.237h12.506
	c13.958,0,18.034,4.284,18.034,16.307v4.976c0,11.884-4.076,16.168-18.034,16.168H225.977z M246.222,24.526
	c0-6.356-1.658-7.738-9.121-7.738h-9.743c-7.323,0-9.051,1.382-9.051,7.738v4.423c0,6.218,1.728,7.738,9.051,7.738h9.743
	c7.463,0,9.121-1.521,9.121-7.738V24.526z"/>
<path d="M105.237,28.049c-0.445-0.66-1-1.161-1.619-1.521c-0.087-0.051-0.177-0.093-0.267-0.139
	c0.577-0.352,1.097-0.811,1.519-1.416c0.809-1.156,1.237-2.762,1.237-4.98v-2.991c0-1.581-0.206-2.946-0.68-4.116
	c-0.354-0.876-0.862-1.639-1.527-2.269c-0.998-0.948-2.324-1.588-3.968-1.991c-1.646-0.403-3.622-0.577-5.984-0.577H57.658v37.778
	h36.824c2.099,0,3.889-0.134,5.411-0.437c1.141-0.228,2.133-0.55,2.987-0.991c1.279-0.656,2.241-1.602,2.844-2.811
	c0.605-1.208,0.863-2.651,0.863-4.341v-3.205C106.586,31.273,106.129,29.375,105.237,28.049z M97.175,20.526
	c0,0.56-0.055,0.996-0.155,1.314c-0.076,0.239-0.171,0.411-0.29,0.55c-0.177,0.205-0.422,0.363-0.849,0.485
	c-0.423,0.12-1.012,0.184-1.773,0.183H67.125v-7.041h26.183c0.832,0,1.51,0.043,2.04,0.134c0.397,0.067,0.709,0.16,0.943,0.27
	c0.352,0.169,0.529,0.345,0.667,0.604c0.135,0.262,0.219,0.65,0.218,1.204V20.526z M67.125,30.281h27.198
	c0.706-0.001,1.279,0.047,1.716,0.146c0.329,0.075,0.578,0.178,0.769,0.301c0.282,0.188,0.465,0.413,0.617,0.822
	c0.148,0.407,0.233,1,0.232,1.797v2.244c0,0.5-0.071,0.873-0.186,1.141c-0.087,0.202-0.195,0.35-0.343,0.481
	c-0.22,0.195-0.556,0.361-1.066,0.475c-0.509,0.113-1.179,0.168-2.006,0.168H67.125V30.281z"/>
<g>
	<path fill="#00A2E5" d="M224.792,29.78l6.813-7.918l7.52,7.918V3.547h-9.813c-2.496,0-4.52,2.024-4.52,4.521V29.78z"/>
	<path fill="none" d="M226.337,8.067v17.549l5.212-6.057l6.031,6.351V5.092h-8.269C227.671,5.092,226.337,6.427,226.337,8.067z"/>
	<path d="M245.343,8.067c0-2.865-1.998-5.266-4.673-5.897c-0.448-0.106-0.913-0.168-1.393-0.168h-1.545h-8.421
		c-3.344,0-6.064,2.721-6.064,6.065v25.877l8.415-9.779l9.008,9.485V13.097h4.774L245.343,8.067z M237.581,25.91l-6.031-6.351
		l-5.212,6.057V8.067c0-1.64,1.334-2.975,2.975-2.975h8.269V25.91z"/>
</g>
</svg>
